PathFileType	4	(X/Y/Z)	Run_500 01
DataRate	CameraRate	NumFrames	NumMarkers	Units	OrigDataRate	OrigDataStartFrame	OrigNumFrames
120	120	4	42	mm	120	577	128
Frame#	Time	LASI			RASI			LPSI			RPSI			RTH1			RTH2			RTH3			LTH1			LTH2			LTH3			RTB1			RTB2			LTB1			LTB2			LTB3			RCAL			RTOE			RMT5			LCAL			LTOE			LMT5			LACR			RACR			CLAV			C7			RUA1			RUA2			RUA3			RLEL			LUA1			LUA2			LUA3			LLEL			LMEL			RFAsuperior			RFAradius			RFAulna			LFAsuperior			LFAradius			LFAulna			RMEL			RTB3		
		X1	Y1	Z1	X2	Y2	Z2	X3	Y3	Z3	X4	Y4	Z4	X5	Y5	Z5	X6	Y6	Z6	X7	Y7	Z7	X8	Y8	Z8	X9	Y9	Z9	X10	Y10	Z10	X11	Y11	Z11	X12	Y12	Z12	X13	Y13	Z13	X14	Y14	Z14	X15	Y15	Z15	X16	Y16	Z16	X17	Y17	Z17	X18	Y18	Z18	X19	Y19	Z19	X20	Y20	Z20	X21	Y21	Z21	X22	Y22	Z22	X23	Y23	Z23	X24	Y24	Z24	X25	Y25	Z25	X26	Y26	Z26	X27	Y27	Z27	X28	Y28	Z28	X29	Y29	Z29	X30	Y30	Z30	X31	Y31	Z31	X32	Y32	Z32	X33	Y33	Z33	X34	Y34	Z34	X35	Y35	Z35	X36	Y36	Z36	X37	Y37	Z37	X38	Y38	Z38	X39	Y39	Z39	X40	Y40	Z40	X41	Y41	Z41	X42	Y42	Z42	

577	  4.808333	1089.579061	955.608803	-431.902496	1073.268155	961.770884	-192.585670	921.205160	1005.820174	-378.367178	912.118043	1008.890408	-281.469445	1002.692285	805.209515	-155.495466	1085.492842	662.264556	-186.666072	1031.147553	568.906280	-216.687556	1064.706904	796.325661	-496.849719	1184.706320	734.452336	-485.412216	1170.401923	601.321420	-489.659261	1040.993986	341.744280	-297.956933	970.443576	307.621529	-241.942484	1104.013664	484.898337	-425.979044	1018.470731	552.161060	-472.267844	918.507893	551.797480	-404.984425	751.732195	103.797821	-334.527169	963.338058	 70.602232	-348.491865	938.479281	 46.804582	-239.691004	826.411393	699.147611	-389.905041	746.016770	508.270585	-362.174569	725.744707	527.739337	-467.449661	1061.821117	1451.330134	-475.320740	1095.270128	1416.946468	-108.211161	1151.318761	1388.839536	-277.789114	1035.041412	1478.503179	-295.050294	1073.309977	1327.928567	-64.444511	1072.205175	1239.502563	-84.444448	988.306949	1243.827772	-51.919036	958.583373	1133.828613	-31.977722	1007.822695	1398.301818	-528.374593	939.939310	1358.092086	-492.375947	961.868162	1307.694103	-556.430486	853.240021	1252.601548	-588.029274	830.876393	1247.128302	-520.067056	1047.567360	1098.410744	-38.517246	1177.884728	989.919914	-81.084107	1131.539910	937.215282	-88.500480	904.865385	1184.249173	-598.564220	971.374744	995.310333	-555.863487	914.256534	991.684222	-596.032789	936.860568	1130.838329	-96.694131	933.758319	194.277784	-311.483275	
578	  4.816667	1089.375839	957.630889	-431.774465	1072.999352	961.723958	-191.862540	921.387502	1008.078089	-379.071670	912.848436	1010.319208	-282.083116	996.178937	806.421616	-155.366306	1071.579711	659.722581	-186.005690	1012.263267	568.360442	-215.022450	1070.146164	802.089063	-497.093769	1195.610106	750.095666	-484.193042	1190.525567	616.405901	-490.179888	1012.631124	340.231897	-295.898054	941.033379	308.342027	-240.593725	1132.481569	492.279881	-424.607495	1039.995119	551.267664	-470.718939	941.659210	541.657899	-403.694624	717.777200	110.019736	-332.596488	928.194084	 71.545703	-347.685378	902.658686	 46.293185	-239.490463	833.895571	680.557849	-388.323441	774.999417	481.886188	-362.990370	753.449023	499.846959	-468.491385	1056.897826	1454.176035	-474.812479	1100.101128	1420.542380	-109.187325	1151.582985	1391.254119	-280.285622	1034.577771	1480.372430	-294.350327	1079.500795	1331.557624	-65.471930	1080.380861	1243.300650	-84.681635	995.996381	1245.447553	-52.501391	970.856207	1134.477923	-30.924541	1000.015540	1404.342920	-526.196177	934.231068	1363.701794	-487.163056	951.398689	1315.962000	-555.475854	840.748237	1263.386207	-584.174897	821.593728	1256.120837	-515.442945	1062.253046	1103.783048	-39.716957	1198.076149	1005.248018	-87.925392	1155.612269	949.569842	-92.379508	890.067775	1194.242397	-598.808984	956.909796	1004.174597	-560.444729	899.096084	1001.354706	-599.462283	948.912454	1130.893355	-95.948221	901.732960	195.994627	-309.169168	
579	  4.825000	1089.972488	961.137617	-431.085378	1073.021418	962.472855	-190.950112	922.082314	1011.647608	-379.687129	913.868552	1012.808194	-282.461613	990.385530	808.829992	-154.965715	1058.256166	658.957217	-185.242454	993.672498	569.933246	-213.055822	1075.488855	809.378299	-497.306429	1204.602884	767.205498	-482.943379	1208.771623	633.357719	-490.200971	984.518191	341.223640	-293.428765	911.933283	311.513206	-238.501959	1159.421308	500.828773	-423.293466	1060.730296	550.582335	-469.086049	964.555352	530.698257	-402.607251	684.510662	119.395093	-330.264388	892.638503	 72.670441	-346.457301	865.963595	 45.856359	-239.183077	841.595506	658.097722	-386.851113	806.091722	454.106690	-363.395328	782.730111	470.154002	-468.990713	1052.225850	1458.537696	-474.172396	1104.512063	1425.276100	-110.463780	1151.938737	1395.180247	-282.821835	1034.151409	1483.431749	-293.882798	1085.562058	1336.249325	-66.688074	1087.894325	1248.398406	-85.002240	1003.011165	1248.620434	-53.355662	981.753989	1136.935158	-30.215864	992.869704	1411.893711	-523.675670	928.613616	1371.377023	-482.793275	941.587081	1325.777563	-554.149485	828.845532	1275.567315	-579.756506	812.944597	1266.493571	-510.606799	1075.444130	1110.990257	-40.808404	1216.119517	1023.313920	-94.815697	1177.955099	964.848270	-96.490733	876.235811	1206.051929	-598.327746	944.967866	1015.753432	-563.770262	886.090964	1013.046656	-600.737359	959.942754	1133.071918	-95.667310	870.219026	200.020791	-306.488516	
580	  4.833333	1091.279420	965.916668	-429.829911	1073.360359	964.147320	-189.759024	923.165325	1016.431385	-379.910529	915.215412	1016.449686	-282.282806	985.451107	812.132141	-154.514025	1045.593123	659.816142	-184.586810	975.541095	573.662001	-210.964057	1080.739352	818.090973	-497.793155	1211.766366	785.019506	-481.553960	1224.794224	651.668111	-489.864765	956.710236	344.683307	-290.491843	883.225483	317.204134	-235.622628	1184.722067	509.857503	-422.553114	1080.997693	549.887456	-467.591973	987.188027	519.245083	-401.765251	651.886318	132.206181	-327.405113	855.914049	 73.873251	-345.061729	827.653910	 45.595847	-238.708209	850.675061	632.181752	-385.522212	839.873507	425.756217	-363.465882	814.260403	439.362293	-468.952825	1047.931954	1464.232315	-473.428843	1108.433645	1430.860942	-112.030467	1152.391305	1400.477733	-285.418736	1033.778973	1487.512416	-293.651839	1091.327651	1341.768403	-68.051287	1094.870435	1254.385726	-85.504128	1009.489923	1253.146085	-54.262179	991.416756	1140.872842	-29.674848	986.654803	1420.606367	-521.010907	923.108525	1380.537837	-479.320634	932.875961	1336.550656	-552.385847	818.073470	1288.635465	-574.945041	805.154264	1277.737203	-505.714291	1087.078737	1119.612690	-41.663192	1231.736975	1043.426137	-101.470185	1198.114910	982.384050	-101.059211	864.287400	1219.181376	-596.775811	935.257900	1029.140713	-566.186100	875.007770	1026.174676	-600.200578	969.831373	1136.964934	-95.514865	839.077543	206.402855	-303.458477	
